# xmcd CD database file
#
# Track frame offsets:
#	150
#	17307
#	35860
#	49540
#	65200
#	83428
#	95567
#	110689
#	124340
#	139687
#
# Disc length: 2139 seconds
#
# Revision: 0
# Processed by: cddbd v1.5.1PL2 Copyright (c) Steve Scherf et al.
# Submitted via: CDex 1.51
#
DISCID=8508590a
DTITLE=Jean and Christiane - Ensemble
DYEAR=1900
DGENRE=Québécois
TTITLE0=adieu et bonne chance  (de Sweet People)
TTITLE1=Je reviens c'est pour vous
TTITLE2=mes yeux n'ont jamais vu
TTITLE3=je t'attendrai my love (  de Sweet People)
TTITLE4=Juliana  (de Claude Michel)
TTITLE5=La clef du mystère
TTITLE6=je n'aime que toi
TTITLE7=viens près de moi
TTITLE8=je te demande pardon  (De Billy Ray Cirus adaptation de Sweet People)
TTITLE9=ensemble 
EXTD=
EXTT0=
EXTT1=
EXTT2=
EXTT3=
EXTT4=
EXTT5=
EXTT6=
EXTT7=
EXTT8=
EXTT9=
PLAYORDER=
